<svg width="24" height="24" viewBox="0 0 24 24" fill="none" xmlns="http://www.w3.org/2000/svg">
<g clip-path="url(#clip0_9300_4005)">
<mask id="mask0_9300_4005" style="mask-type:alpha" maskUnits="userSpaceOnUse" x="0" y="0" width="24" height="24">
<path d="M20.5005 9.478V6C20.5005 4.895 19.6055 4 18.5005 4H15.0225" stroke="#0C747E" stroke-width="1.5" stroke-linecap="round" stroke-linejoin="round"/>
<path d="M8.978 4H5.5C4.395 4 3.5 4.895 3.5 6V9.478" stroke="#0C747E" stroke-width="1.5" stroke-linecap="round" stroke-linejoin="round"/>
<path d="M3.5 14.522V18C3.5 19.105 4.395 20 5.5 20H8.978" stroke="#0C747E" stroke-width="1.5" stroke-linecap="round" stroke-linejoin="round"/>
<path d="M15.0225 20H18.5005C19.6055 20 20.5005 19.105 20.5005 18V14.522" stroke="#0C747E" stroke-width="1.5" stroke-linecap="round" stroke-linejoin="round"/>
<path d="M10.5354 15.9646C10.5549 15.9842 10.5549 16.0158 10.5354 16.0354C10.5158 16.0549 10.4842 16.0549 10.4646 16.0354C10.4451 16.0158 10.4451 15.9842 10.4646 15.9646C10.4842 15.9451 10.5158 15.9451 10.5354 15.9646" stroke="#0C747E" stroke-width="1.5" stroke-linecap="round" stroke-linejoin="round"/>
<path d="M13.5354 15.9646C13.5549 15.9842 13.5549 16.0158 13.5354 16.0354C13.5158 16.0549 13.4842 16.0549 13.4646 16.0354C13.4451 16.0158 13.4451 15.9842 13.4646 15.9646C13.4842 15.9451 13.5158 15.9451 13.5354 15.9646" stroke="#0C747E" stroke-width="1.5" stroke-linecap="round" stroke-linejoin="round"/>
<path d="M16.5 8V16" stroke="#0C747E" stroke-width="1.5" stroke-linecap="round" stroke-linejoin="round"/>
<path d="M7.5 8V16" stroke="#0C747E" stroke-width="1.5" stroke-linecap="round" stroke-linejoin="round"/>
<path d="M13.5 8V13" stroke="#0C747E" stroke-width="1.5" stroke-linecap="round" stroke-linejoin="round"/>
<path d="M10.5 8V13" stroke="#0C747E" stroke-width="1.5" stroke-linecap="round" stroke-linejoin="round"/>
</mask>
<g mask="url(#mask0_9300_4005)">
<rect width="24" height="24" fill="#414A4C"/>
</g>
</g>
<defs>
<clipPath id="clip0_9300_4005">
<rect width="24" height="24" fill="white"/>
</clipPath>
</defs>
</svg>
