<svg width="24" height="24" viewBox="0 0 24 24" fill="none" xmlns="http://www.w3.org/2000/svg">
<g clip-path="url(#clip0_9300_3985)">
<mask id="mask0_9300_3985" style="mask-type:alpha" maskUnits="userSpaceOnUse" x="0" y="0" width="24" height="24">
<path fill-rule="evenodd" clip-rule="evenodd" d="M18.414 6.414L15.586 3.586C15.211 3.211 14.702 3 14.172 3H7C5.895 3 5 3.895 5 5V19C5 20.105 5.895 21 7 21H17C18.105 21 19 20.105 19 19V7.828C19 7.298 18.789 6.789 18.414 6.414V6.414Z" stroke="#0C747E" stroke-width="1.35007" stroke-linecap="round" stroke-linejoin="round"/>
<path d="M8 12.23H16" stroke="#0C747E" stroke-width="1.35007" stroke-linecap="round" stroke-linejoin="round"/>
<path d="M8 15.23H16" stroke="#0C747E" stroke-width="1.35007" stroke-linecap="round" stroke-linejoin="round"/>
<path d="M8 18H13" stroke="#0C747E" stroke-width="1.35007" stroke-linecap="round" stroke-linejoin="round"/>
<path fill-rule="evenodd" clip-rule="evenodd" d="M8 8.251V6.749C8 6.335 8.335 6 8.749 6H10.251C10.665 6 11 6.335 11 6.749V8.251C11 8.665 10.665 9 10.251 9H8.749C8.335 9 8 8.665 8 8.251Z" stroke="#0C747E" stroke-width="1.35007" stroke-linecap="round" stroke-linejoin="round"/>
</mask>
<g mask="url(#mask0_9300_3985)">
<rect width="24" height="24" fill="#414A4C"/>
</g>
</g>
<defs>
<clipPath id="clip0_9300_3985">
<rect width="24" height="24" fill="white"/>
</clipPath>
</defs>
</svg>
