<svg width="24" height="24" viewBox="0 0 24 24" fill="none" xmlns="http://www.w3.org/2000/svg">
<path d="M18.4977 12.0002C18.4977 12.2765 18.2738 12.5004 17.9975 12.5004C17.7213 12.5004 17.4973 12.2765 17.4973 12.0002C17.4973 11.724 17.7213 11.5 17.9975 11.5C18.2738 11.5 18.4977 11.724 18.4977 12.0002" stroke="#2C3039" stroke-width="1.5" stroke-linecap="round" stroke-linejoin="round"/>
<path d="M12.4952 12.0002C12.4952 12.2765 12.2712 12.5004 11.995 12.5004C11.7187 12.5004 11.4948 12.2765 11.4948 12.0002C11.4948 11.724 11.7187 11.5 11.995 11.5C12.2712 11.5 12.4952 11.724 12.4952 12.0002" stroke="#2C3039" stroke-width="1.5" stroke-linecap="round" stroke-linejoin="round"/>
<path d="M6.49273 12.0002C6.49273 12.2765 6.26878 12.5004 5.99252 12.5004C5.71626 12.5004 5.49231 12.2765 5.49231 12.0002C5.49231 11.724 5.71626 11.5 5.99252 11.5C6.26878 11.5 6.49273 11.724 6.49273 12.0002" stroke="#2C3039" stroke-width="1.5" stroke-linecap="round" stroke-linejoin="round"/>
</svg>
