<svg width="16" height="20" viewBox="0 0 16 20" fill="none" xmlns="http://www.w3.org/2000/svg">
<path fill-rule="evenodd" clip-rule="evenodd" d="M13 19H3C1.895 19 1 18.105 1 17V9C1 7.895 1.895 7 3 7H13C14.105 7 15 7.895 15 9V17C15 18.105 14.105 19 13 19Z" stroke="#2C3039" stroke-width="1.5" stroke-linecap="round" stroke-linejoin="round"/>
<path d="M12 7V5C12 2.791 10.209 1 8 1V1C5.791 1 4 2.791 4 5V7" stroke="#2C3039" stroke-width="1.5" stroke-linecap="round" stroke-linejoin="round"/>
<path d="M7.99801 12.5C7.72201 12.5 7.49801 12.724 7.50001 13C7.50001 13.276 7.72401 13.5 8.00001 13.5C8.27601 13.5 8.50001 13.276 8.50001 13C8.50001 12.724 8.27601 12.5 7.99801 12.5" stroke="#2C3039" stroke-width="1.5" stroke-linecap="round" stroke-linejoin="round"/>
</svg>
