<svg width="49" height="48" viewBox="0 0 49 48" fill="none" xmlns="http://www.w3.org/2000/svg">
<mask id="mask0_11460_79011" style="mask-type:alpha" maskUnits="userSpaceOnUse" x="0" y="0" width="49" height="48">
<path d="M22.5 31.8H8.3C6.2 31.8 4.5 30.1 4.5 28V9.8C4.5 7.7 6.2 6 8.3 6H38.7C40.8 6 42.5 7.7 42.5 9.8V20" stroke="#262626" stroke-width="3" stroke-linecap="round" stroke-linejoin="round"/>
<path d="M26.858 15.942C28.712 17.796 28.712 20.804 26.858 22.66C25.004 24.514 21.996 24.514 20.14 22.66C18.286 20.806 18.286 17.798 20.14 15.942C21.996 14.086 25.004 14.086 26.858 15.942" stroke="#262626" stroke-width="3" stroke-linecap="round" stroke-linejoin="round"/>
<path d="M36.5 42C32.082 42 28.5 38.418 28.5 34C28.5 29.582 32.082 26 36.5 26C40.92 26 44.5 29.582 44.5 34C44.5 38.418 40.92 42 36.5 42" stroke="#262626" stroke-width="3" stroke-linecap="round" stroke-linejoin="round"/>
<path d="M12.5 26H10.5" stroke="#262626" stroke-width="3" stroke-linecap="round" stroke-linejoin="round"/>
<path d="M36.5 12H34.5" stroke="#262626" stroke-width="3" stroke-linecap="round" stroke-linejoin="round"/>
<path d="M40.0558 32.222L35.6118 36.666L32.9438 34" stroke="#262626" stroke-width="3" stroke-linecap="round" stroke-linejoin="round"/>
</mask>
<g mask="url(#mask0_11460_79011)">
<rect x="0.5" width="48" height="48" fill="white"/>
</g>
</svg>
